<svg width="274" height="27" viewBox="0 0 274 27" fill="none" xmlns="http://www.w3.org/2000/svg">
<path d="M11.2737 0.160156H16.4416L27.7019 26.6426H21.8417L19.1617 20.0857H8.3972L5.71724 26.6426H0L11.2737 0.160156ZM17.1696 15.1322L13.7795 5.56027L10.4027 15.1322H17.1696Z" fill="black"/>
<path d="M44.4215 0V21.6675H58.6253V26.6433H39.0884V0H44.4215Z" fill="black"/>
<path d="M76.9399 0V21.6675H91.1526V26.6433H71.6157V0H76.9399Z" fill="black"/>
<path d="M104.022 26.6424V0.0169678H123.595V4.99275H109.351V10.6653L121 10.7011V15.6545L109.351 15.6188V21.6755H123.559V26.6513L104.022 26.6424Z" fill="black"/>
<path d="M137.685 0.160156H149.298C152.549 0.160156 155.019 1.03113 156.721 2.73291C158.177 4.19349 158.905 6.12753 158.905 8.56183V8.6333C158.905 12.7515 156.672 15.3332 153.456 16.5347L160.027 26.6426H153.063L147.703 16.8742H143.299V26.6426H137.685V0.160156ZM148.963 12.5192C151.732 12.5192 153.26 11.1033 153.26 8.94595V8.85663C153.26 6.4268 151.607 5.23421 148.856 5.23421H143.277V12.5326L148.963 12.5192Z" fill="black"/>
<path d="M172.362 26.6433V0H174.148L185.69 13.1452L197.254 0H199.041V26.6433H193.694V11.1888L185.699 20.0729L177.708 11.1888V26.6433H172.362Z" fill="black"/>
<path d="M222.423 0.160156H227.591L238.851 26.6426H232.991L230.311 20.0857H219.547L216.867 26.6426H211.149L222.423 0.160156ZM228.319 15.1322L224.929 5.56027L221.552 15.1322H228.319Z" fill="black"/>
<path d="M250.184 26.6433V0H251.971L268.64 16.6962V0H274V26.6433H272.048L255.522 10.1168V26.6433H250.184Z" fill="black"/>
</svg>
