<svg width="146" height="20" viewBox="0 0 146 20" fill="none" xmlns="http://www.w3.org/2000/svg">
<path d="M6.92202 0.798828H9.63667L15.5516 14.3828H12.4733L11.0656 11.0194H5.41101L4.00324 14.3828H1L6.92202 0.798828ZM10.0191 8.47861L8.23828 3.56877L6.46449 8.47861H10.0191Z" fill="black"/>
<path d="M24.3425 0.710938V11.8251H31.8037V14.3774H21.541V0.710938H24.3425Z" fill="black"/>
<path d="M41.4169 0.710938V11.8251H48.8828V14.3774H38.6201V0.710938H41.4169Z" fill="black"/>
<path d="M55.6436 14.378V0.720703H65.925V3.27299H58.4427V6.1827L64.5618 6.20102V8.74186L58.4427 8.72353V11.8303H65.9062V14.3826L55.6436 14.378Z" fill="black"/>
<path d="M73.3262 0.798828H79.4265C81.1346 0.798828 82.4321 1.24559 83.326 2.1185C84.0909 2.86769 84.4734 3.85974 84.4734 5.1084V5.14505C84.4734 7.25745 83.3002 8.58171 81.6109 9.19802L85.0623 14.3828H81.4044L78.5889 9.37214H76.2755V14.3828H73.3262V0.798828ZM79.2505 7.13831C80.7052 7.13831 81.5077 6.41203 81.5077 5.30543V5.25961C81.5077 4.01325 80.6395 3.40152 79.1942 3.40152H76.2637V7.14518L79.2505 7.13831Z" fill="black"/>
<path d="M91.5439 14.3774V0.710938H92.4825L98.5452 7.45366L104.62 0.710938H105.558V14.3774H102.75V6.45016L98.5499 11.0072L94.3524 6.45016V14.3774H91.5439Z" fill="black"/>
<path d="M117.839 0.798828H120.554L126.469 14.3828H123.39L121.983 11.0194H116.328L114.92 14.3828H111.917L117.839 0.798828ZM120.936 8.47861L119.155 3.56877L117.381 8.47861H120.936Z" fill="black"/>
<path d="M132.415 14.3774V0.710938H133.354L142.11 9.27509V0.710938H144.925V14.3774H143.9L135.219 5.90029V14.3774H132.415Z" fill="black"/>
</svg>
