<svg width="215" height="20" viewBox="0 0 215 20" fill="none" xmlns="http://www.w3.org/2000/svg">
<path d="M6.92202 0.798828H9.63667L15.5516 14.3828H12.4733L11.0656 11.0194H5.41101L4.00324 14.3828H1L6.92202 0.798828ZM10.0191 8.47861L8.23828 3.56877L6.46449 8.47861H10.0191Z" fill="black"/>
<path d="M24.3425 0.710938V11.8251H31.8037V14.3774H21.541V0.710938H24.3425Z" fill="black"/>
<path d="M41.4169 0.710938V11.8251H48.8828V14.3774H38.6201V0.710938H41.4169Z" fill="black"/>
<path d="M55.6436 14.378V0.720703H65.925V3.27299H58.4427V6.1827L64.5618 6.20102V8.74186L58.4427 8.72353V11.8303H65.9062V14.3826L55.6436 14.378Z" fill="black"/>
<path d="M73.3262 0.798828H79.4265C81.1346 0.798828 82.4321 1.24559 83.326 2.1185C84.0909 2.86769 84.4734 3.85974 84.4734 5.1084V5.14505C84.4734 7.25745 83.3002 8.58171 81.6109 9.19802L85.0623 14.3828H81.4044L78.5889 9.37214H76.2755V14.3828H73.3262V0.798828ZM79.2505 7.13831C80.7052 7.13831 81.5077 6.41203 81.5077 5.30543V5.25961C81.5077 4.01325 80.6395 3.40152 79.1942 3.40152H76.2637V7.14518L79.2505 7.13831Z" fill="black"/>
<path d="M91.5444 14.3774V0.710938H92.4829L98.5457 7.45366L104.62 0.710938H105.559V14.3774H102.75V6.45016L98.5504 11.0072L94.3529 6.45016V14.3774H91.5444Z" fill="black"/>
<path d="M117.839 0.798828H120.554L126.469 14.3828H123.39L121.983 11.0194H116.328L114.92 14.3828H111.917L117.839 0.798828ZM120.936 8.47861L119.155 3.56877L117.381 8.47861H120.936Z" fill="black"/>
<path d="M132.415 14.3774V0.710938H133.353L142.109 9.27509V0.710938H144.925V14.3774H143.9L135.218 5.90029V14.3774H132.415Z" fill="black"/>
<path d="M161.431 10.7246C161.431 12.0659 161.021 13.1326 160.202 13.9248C159.383 14.717 158.278 15.1122 156.888 15.1104C156.141 15.0915 155.399 14.9834 154.679 14.7885C154.05 14.6101 153.4 14.5083 152.745 14.4854C152.705 13.3409 152.621 12.1955 152.494 11.0492C152.494 10.9392 152.599 10.8856 152.806 10.8856C152.865 10.8758 152.925 10.8869 152.976 10.917C153.027 10.9471 153.065 10.9941 153.082 11.0492C153.451 12.301 153.93 13.1835 154.521 13.6968C155.104 14.2091 155.924 14.464 156.976 14.464C157.334 14.486 157.693 14.4343 158.029 14.3122C158.365 14.1902 158.671 14.0006 158.926 13.7558C159.387 13.2864 159.619 12.6238 159.619 11.7762C159.612 11.2151 159.397 10.6753 159.014 10.2552C158.611 9.78666 157.755 9.18133 156.446 8.43918C154.938 7.59689 153.952 6.88158 153.488 6.29322C153.035 5.73777 152.79 5.04916 152.792 4.3404C152.784 3.8174 152.892 3.29884 153.109 2.81984C153.325 2.34084 153.645 1.91258 154.046 1.56406C154.912 0.793749 156.054 0.385195 157.228 0.426709C157.791 0.435772 158.353 0.499571 158.904 0.61716C159.408 0.723383 159.921 0.781775 160.437 0.791518C160.519 1.97716 160.63 3.02153 160.768 3.92462C160.768 4.03191 160.68 4.08557 160.492 4.08557C160.304 4.08557 160.191 4.03191 160.171 3.92462C159.943 2.91423 159.595 2.18639 159.128 1.74111C158.868 1.50971 158.563 1.33136 158.231 1.21662C157.899 1.10188 157.546 1.0531 157.194 1.07317C156.854 1.05617 156.514 1.10663 156.194 1.22146C155.875 1.33629 155.583 1.5131 155.336 1.74111C155.1 1.97873 154.917 2.26082 154.797 2.56994C154.678 2.87907 154.626 3.20866 154.643 3.53834C154.655 4.0491 154.862 4.5373 155.223 4.90908C155.609 5.34364 156.446 5.92483 157.733 6.65267C159.257 7.51284 160.255 8.23353 160.727 8.81472C161.185 9.35161 161.436 10.0271 161.436 10.7246" fill="black"/>
<path d="M173.068 10.48C173.087 11.093 172.974 11.703 172.736 12.2712C172.498 12.8393 172.141 13.353 171.688 13.7794C171.218 14.2163 170.663 14.5572 170.055 14.782C169.448 15.0069 168.8 15.1111 168.15 15.0885C167.413 15.1082 166.683 14.9487 166.026 14.6244V17.7414C166.026 18.3959 166.115 18.8144 166.286 19.0397C166.457 19.265 166.838 19.3884 167.443 19.4635C167.553 19.4635 167.609 19.5574 167.609 19.7318C167.609 19.9061 167.553 20 167.443 20C167.167 20 166.791 19.9786 166.338 19.9357C165.885 19.8927 165.444 19.8766 165.112 19.8766C164.781 19.8766 164.347 19.8954 163.853 19.9357C163.409 19.9786 163.041 20 162.748 20C162.638 20 162.583 19.9061 162.583 19.7318C162.583 19.5574 162.638 19.4635 162.748 19.4635C163.339 19.3884 163.723 19.249 163.9 19.0397C164.077 18.8305 164.176 18.3986 164.176 17.7441V8.79276C164.176 8.25627 164.104 7.8995 163.963 7.71978C163.822 7.54005 163.502 7.45154 163.008 7.38716C162.9 7.38716 162.842 7.29595 162.842 7.11891C162.842 6.94187 162.9 6.86945 163.008 6.86945C163.59 6.73895 164.157 6.55296 164.701 6.31418C165.028 6.18223 165.332 6.0012 165.601 5.77769C165.627 5.74384 165.659 5.71545 165.697 5.69424C165.735 5.67303 165.776 5.65944 165.819 5.6543C166.015 5.6543 166.095 5.70794 166.095 5.81792L166.012 7.0894C166.398 6.70253 166.845 6.37749 167.335 6.1264C167.723 5.89829 168.162 5.76397 168.614 5.73477C169.982 5.73477 171.064 6.16843 171.862 7.03576C172.659 7.90308 173.057 9.04669 173.057 10.4666M170.956 10.4451C170.956 9.32031 170.704 8.44225 170.202 7.81098C169.954 7.50026 169.632 7.25221 169.264 7.08785C168.897 6.92348 168.494 6.84764 168.089 6.86676C167.731 6.86312 167.376 6.94315 167.056 7.10013C166.661 7.32736 166.308 7.61754 166.012 7.95852V12.9103C166.015 13.1222 166.069 13.3304 166.172 13.5172C166.275 13.7041 166.423 13.864 166.603 13.9833C167.021 14.2821 167.529 14.4361 168.048 14.4205C168.469 14.4399 168.888 14.355 169.265 14.1739C169.643 13.9927 169.967 13.7213 170.207 13.3851C170.708 12.693 170.958 11.7095 170.956 10.4344" fill="black"/>
<path d="M179.767 14.5021C179.767 14.6899 179.712 14.7838 179.601 14.7838C179.325 14.7838 178.952 14.765 178.497 14.7248C178 14.6845 177.58 14.6631 177.243 14.6631C176.906 14.6631 176.483 14.6845 176 14.7248C175.561 14.765 175.202 14.7838 174.918 14.7838C174.807 14.7838 174.752 14.6899 174.752 14.5021C174.752 14.3331 174.807 14.2339 174.918 14.2339C175.506 14.1615 175.887 14.0247 176.055 13.8208C176.224 13.6169 176.312 13.1877 176.312 12.5305V8.7912C176.312 8.25471 176.24 7.89795 176.097 7.73164C175.953 7.56533 175.647 7.46339 175.166 7.39902C175.056 7.39902 175.001 7.30781 175.001 7.13077C175.001 6.95373 175.056 6.8813 175.166 6.8813C175.777 6.73815 176.374 6.5443 176.95 6.30189C177.27 6.18472 177.564 6.01201 177.82 5.79222C177.847 5.75648 177.881 5.72688 177.92 5.70554C177.96 5.6842 178.004 5.67166 178.049 5.66883C178.243 5.66883 178.325 5.72248 178.325 5.83246C178.215 7.33999 178.16 8.51223 178.16 9.34915V12.5225C178.16 13.1824 178.245 13.6142 178.414 13.8154C178.582 14.0166 178.966 14.1561 179.576 14.2285C179.687 14.2446 179.742 14.3331 179.742 14.4968M178.284 2.27821C178.285 2.4877 178.222 2.69277 178.103 2.8674C177.984 3.04202 177.814 3.17832 177.615 3.25897C177.416 3.33963 177.197 3.36101 176.985 3.3204C176.773 3.27979 176.579 3.17903 176.427 3.0309C176.274 2.88277 176.17 2.69396 176.129 2.48844C176.087 2.28293 176.109 2.06998 176.192 1.87665C176.275 1.68331 176.415 1.5183 176.595 1.40258C176.775 1.28685 176.986 1.22563 177.202 1.2267C177.343 1.22447 177.484 1.25018 177.616 1.30227C177.747 1.35436 177.867 1.43177 177.966 1.52981C178.07 1.62659 178.151 1.74301 178.206 1.8718C178.26 2.00058 178.287 2.13895 178.284 2.27821Z" fill="black"/>
<path d="M192.498 14.5013C192.498 14.689 192.443 14.7856 192.333 14.7856C191.992 14.7816 191.652 14.761 191.314 14.7239C190.869 14.6837 190.485 14.6622 190.14 14.6622C189.795 14.6622 189.397 14.6837 188.947 14.7239C188.497 14.7642 188.196 14.7856 187.92 14.7856C187.809 14.7856 187.754 14.689 187.754 14.5013C187.754 14.3135 187.809 14.233 187.92 14.233C188.397 14.1794 188.712 14.0506 188.861 13.8387C189.01 13.6268 189.085 13.1949 189.085 12.527V9.14442C189.085 8.39155 188.932 7.83896 188.627 7.48667C188.446 7.30233 188.225 7.15964 187.981 7.06912C187.736 6.97859 187.474 6.94253 187.213 6.96359C186.845 6.95625 186.48 7.03152 186.147 7.18355C185.768 7.38484 185.431 7.65219 185.152 7.97219V12.5324C185.152 13.2003 185.227 13.6348 185.376 13.8441C185.525 14.0533 185.84 14.1848 186.318 14.2384C186.428 14.2545 186.484 14.343 186.484 14.5066C186.484 14.6703 186.428 14.791 186.318 14.791C186.042 14.791 185.685 14.7695 185.277 14.7293C184.827 14.689 184.432 14.6676 184.092 14.6676C183.752 14.6676 183.368 14.689 182.927 14.7293C182.485 14.7695 182.17 14.791 181.885 14.791C181.775 14.791 181.72 14.6944 181.72 14.5066C181.72 14.3189 181.775 14.2384 181.885 14.2384C182.482 14.166 182.866 14.0265 183.04 13.8199C183.214 13.6134 183.302 13.1869 183.302 12.535V8.79034C183.302 8.25385 183.23 7.89709 183.087 7.73077C182.943 7.56446 182.628 7.46253 182.137 7.39815C182.024 7.39815 181.968 7.30695 181.968 7.12991C181.968 6.95287 182.024 6.88043 182.137 6.88043C182.727 6.74619 183.301 6.55477 183.852 6.30907C184.169 6.18723 184.462 6.01197 184.716 5.79136C184.742 5.75534 184.776 5.72554 184.816 5.70417C184.856 5.6828 184.9 5.67042 184.945 5.66797C185.139 5.66797 185.221 5.72161 185.221 5.83159L185.139 7.10308C186.138 6.19641 187.071 5.74308 187.936 5.74308C188.878 5.74308 189.615 6.01132 190.145 6.53172C190.417 6.81583 190.628 7.14998 190.764 7.51441C190.901 7.87885 190.961 8.26619 190.941 8.65354V12.5163C190.941 13.1761 191.026 13.608 191.195 13.8092C191.363 14.0104 191.747 14.1499 192.335 14.2223C192.446 14.2384 192.501 14.3269 192.501 14.4905" fill="black"/>
<path d="M205.544 14.5013C205.544 14.6891 205.488 14.7857 205.378 14.7857C205.102 14.7857 204.743 14.7642 204.306 14.724C203.826 14.6837 203.417 14.6623 203.077 14.6623C202.738 14.6623 202.312 14.6837 201.799 14.724C201.285 14.7642 200.94 14.7857 200.664 14.7857C200.553 14.7857 200.498 14.6891 200.498 14.5013C200.498 14.3135 200.553 14.2331 200.664 14.2331C200.798 14.2258 200.93 14.1921 201.05 14.1338C201.091 14.1017 201.122 14.0604 201.142 14.0136C201.162 13.9667 201.169 13.9159 201.164 13.8656C201.164 13.6653 200.83 13.2182 200.164 12.5244L198.507 10.7244C198.433 10.6568 198.347 10.6042 198.252 10.5696C198.157 10.5351 198.056 10.5193 197.955 10.5233V12.5244C197.922 12.956 197.999 13.3888 198.178 13.7851C198.269 13.9186 198.392 14.0288 198.536 14.1063C198.681 14.1838 198.842 14.2264 199.007 14.2304C199.117 14.2465 199.173 14.335 199.173 14.4986C199.173 14.6623 199.117 14.783 199.007 14.783C198.709 14.783 198.322 14.7615 197.841 14.7213C197.361 14.681 197.03 14.6596 196.767 14.6596C196.505 14.6596 196.11 14.681 195.687 14.7213C195.265 14.7615 194.953 14.783 194.69 14.783C194.577 14.783 194.522 14.6864 194.522 14.4986C194.522 14.3109 194.577 14.2304 194.69 14.2304C195.273 14.1714 195.649 14.0399 195.823 13.8334C195.997 13.6268 196.099 13.1923 196.099 12.5244V3.13578C196.099 2.59929 196.03 2.23448 195.895 2.0628C195.759 1.89113 195.444 1.79456 194.953 1.73018C194.842 1.71409 194.787 1.63093 194.787 1.46194C194.787 1.29294 194.842 1.19369 194.953 1.19369C196.138 0.92366 197.013 0.566 197.576 0.120714C197.652 0.0519511 197.749 0.00950183 197.852 0C198.043 0 198.129 0.0536506 198.129 0.160949C198.018 1.26791 197.963 2.44193 197.963 3.68301V9.94384C198.179 9.95588 198.391 9.8878 198.557 9.75339L200.106 8.32364C200.153 8.27536 200.236 8.20561 200.346 8.11172C200.921 7.60206 201.208 7.22384 201.208 6.97705C201.208 6.80001 200.932 6.67662 200.379 6.60956C200.269 6.59615 200.214 6.50494 200.214 6.34131C200.214 6.17769 200.269 6.07307 200.379 6.07307C200.672 6.07307 201.039 6.09452 201.484 6.13476C201.929 6.175 202.232 6.19378 202.503 6.19378C202.764 6.19057 203.025 6.17355 203.285 6.14281C203.63 6.09957 203.978 6.07629 204.326 6.07307C204.436 6.07307 204.491 6.16696 204.491 6.34131C204.491 6.51567 204.436 6.60956 204.326 6.60956C203.867 6.65173 203.418 6.76966 203 6.95827C202.441 7.25975 201.925 7.63034 201.465 8.06077L199.675 9.60049L202.376 12.5217C202.799 13.0049 203.289 13.4292 203.831 13.7824C204.31 14.0372 204.839 14.1891 205.383 14.2277C205.494 14.2438 205.549 14.3323 205.549 14.496" fill="black"/>
<path d="M213.996 12.1862C214.001 12.5823 213.914 12.9744 213.741 13.3333C213.569 13.6923 213.315 14.0089 212.999 14.2597C212.331 14.8209 211.472 15.1202 210.588 15.0993C210.07 15.0758 209.555 15.0049 209.05 14.8874C208.703 14.8086 208.349 14.7575 207.993 14.7345C207.935 14.2624 207.808 13.5462 207.606 12.5885C207.606 12.4866 207.708 12.4356 207.91 12.4356C208.111 12.4356 208.186 12.4893 208.211 12.5966C208.383 13.1144 208.713 13.5691 209.158 13.9002C209.56 14.2473 210.076 14.4449 210.613 14.4582C210.834 14.4708 211.055 14.4406 211.263 14.3692C211.471 14.2978 211.662 14.1867 211.826 14.0424C211.975 13.8874 212.09 13.7045 212.164 13.5048C212.238 13.3051 212.27 13.0928 212.257 12.8809C212.257 12.725 212.226 12.5706 212.165 12.4265C212.104 12.2824 212.014 12.1515 211.9 12.0413C211.433 11.6633 210.908 11.36 210.343 11.1427C209.295 10.6759 208.604 10.2378 208.269 9.82827C208.074 9.58387 207.93 9.30439 207.847 9.00593C207.763 8.70747 207.742 8.39592 207.783 8.08924C207.824 7.78256 207.927 7.48679 208.086 7.21899C208.245 6.95119 208.458 6.71665 208.711 6.52886C209.332 6.01625 210.124 5.73904 210.939 5.74827C211.45 5.76586 211.958 5.82689 212.458 5.93067C212.691 5.98109 212.927 6.01515 213.165 6.03261C213.184 6.83734 213.231 7.50528 213.3 8.06323C213.3 8.16516 213.198 8.21613 212.997 8.21613C212.795 8.21613 212.72 8.16247 212.707 8.05249C212.651 7.60562 212.452 7.18709 212.138 6.85612C211.998 6.70776 211.827 6.58992 211.636 6.5104C211.446 6.43087 211.24 6.39145 211.033 6.39474C209.956 6.39474 209.418 6.85344 209.418 7.77084C209.423 8.09457 209.56 8.40305 209.799 8.62922C210.296 9.04687 210.855 9.39122 211.456 9.65123C212.477 10.1484 213.15 10.5794 213.474 10.9442C213.789 11.2812 213.964 11.7202 213.963 12.1754" fill="black"/>
</svg>
